<svg xmlns="http://www.w3.org/2000/svg" viewBox="0 0 64 64">
  <rect x="6" y="4" width="52" height="56" rx="6" ry="6" fill="#4A90D9" />
  <rect x="10" y="8" width="44" height="48" rx="3" ry="3" fill="#ffffff" />
  <!-- Row 1: checked -->
  <rect x="15" y="14" width="10" height="10" rx="2" ry="2" fill="none" stroke="#4A90D9" stroke-width="1.5"/>
  <polyline points="17,19.5 20,23 24,16" fill="none" stroke="#34C759" stroke-width="2.5" stroke-linecap="round" stroke-linejoin="round"/>
  <rect x="29" y="16" width="20" height="3" rx="1.5" fill="#CCCCCC"/>
  <rect x="29" y="21" width="12" height="2" rx="1" fill="#E0E0E0"/>
  <!-- Row 2: checked -->
  <rect x="15" y="28" width="10" height="10" rx="2" ry="2" fill="none" stroke="#4A90D9" stroke-width="1.5"/>
  <polyline points="17,33.5 20,37 24,30" fill="none" stroke="#34C759" stroke-width="2.5" stroke-linecap="round" stroke-linejoin="round"/>
  <rect x="29" y="30" width="18" height="3" rx="1.5" fill="#CCCCCC"/>
  <rect x="29" y="35" width="14" height="2" rx="1" fill="#E0E0E0"/>
  <!-- Row 3: unchecked -->
  <rect x="15" y="42" width="10" height="10" rx="2" ry="2" fill="none" stroke="#4A90D9" stroke-width="1.5"/>
  <rect x="29" y="44" width="16" height="3" rx="1.5" fill="#CCCCCC"/>
  <rect x="29" y="49" width="10" height="2" rx="1" fill="#E0E0E0"/>
</svg>
